<?xml version="1.0" ?><svg style="enable-background:new 0 0 512 512;" version="1.1" viewBox="0 0 512 512" xml:space="preserve" xmlns="http://www.w3.org/2000/svg" xmlns:xlink="http://www.w3.org/1999/xlink"><style type="text/css">
	.st0{fill:#0D416B;}
	.st1{fill:#4099FF;}
	.st2{opacity:0.45;}
	.st3{fill:#FFFFFF;}
</style><g id="Edges"/><g id="Background_Bottom"><g><path class="st0" d="M492.3,443.1c0,34.2-27.7,61.9-61.9,61.9H80.7c-34.2,0-61.9-27.7-61.9-61.9V93.4c0-34.2,27.7-61.9,61.9-61.9    h349.7c34.2,0,61.9,27.7,61.9,61.9V443.1z"/></g></g><g id="Background"><path class="st1" d="M492.3,418.4c0,34.2-27.7,61.9-61.9,61.9H80.7c-34.2,0-61.9-27.7-61.9-61.9V68.6c0-34.2,27.7-61.9,61.9-61.9   h349.7c34.2,0,61.9,27.7,61.9,61.9V418.4z"/></g><g id="Shadow"><path class="st2" d="M423.4,219.2C423.4,219.2,423.4,219.2,423.4,219.2C423.4,219.2,423.4,219.2,423.4,219.2L423.4,219.2   L423.4,219.2c-0.5-0.1-1-0.1-1.5-0.2l-64.3-64.3l0,0c-0.2-0.2-0.3-0.3-0.5-0.5c-0.3-0.3-0.6-0.6-1-0.9c-0.6-0.6-1.3-1.2-1.9-1.8   c-0.4-0.4-0.9-0.8-1.3-1.2c-0.4-0.4-0.8-0.7-1.2-1.1c-0.4-0.3-0.7-0.7-1.1-1c-0.4-0.4-0.8-0.7-1.2-1.1c-0.4-0.3-0.8-0.7-1.2-1   c-0.4-0.3-0.8-0.7-1.2-1c-0.4-0.4-0.9-0.7-1.3-1.1c-0.5-0.4-1.1-0.9-1.6-1.3c-0.6-0.5-1.2-0.9-1.8-1.4c-0.4-0.3-0.8-0.6-1.2-0.9   c-0.5-0.3-0.9-0.7-1.4-1c-0.4-0.3-0.8-0.6-1.2-0.9c-0.5-0.3-0.9-0.7-1.4-1c-0.4-0.3-0.8-0.5-1.2-0.8c-0.6-0.4-1.2-0.8-1.8-1.2   c-0.4-0.3-0.9-0.6-1.3-0.8c-0.7-0.4-1.3-0.8-2-1.3c-0.4-0.2-0.8-0.5-1.1-0.7c-0.5-0.3-1.1-0.6-1.6-0.9c-0.4-0.2-0.8-0.5-1.2-0.7   c-0.6-0.3-1.1-0.6-1.7-0.9c-0.4-0.2-0.7-0.4-1.1-0.6c-0.8-0.5-1.7-0.9-2.5-1.3c-0.3-0.1-0.5-0.3-0.8-0.4c-0.7-0.4-1.4-0.7-2.2-1.1   c-0.4-0.2-0.7-0.4-1.1-0.5c-0.6-0.3-1.2-0.6-1.8-0.8c-0.4-0.2-0.8-0.3-1.1-0.5c-0.6-0.3-1.3-0.6-1.9-0.8c-0.3-0.1-0.7-0.3-1-0.4   c-1-0.4-1.9-0.8-2.9-1.2c-0.2-0.1-0.5-0.2-0.7-0.3c-0.8-0.3-1.5-0.6-2.3-0.9c-0.4-0.1-0.7-0.3-1.1-0.4c-0.7-0.2-1.3-0.5-2-0.7   c-0.4-0.1-0.7-0.3-1.1-0.4c-0.7-0.2-1.5-0.5-2.2-0.7c-0.3-0.1-0.6-0.2-0.9-0.3c-1-0.3-2-0.6-3-0.9c-0.3-0.1-0.5-0.1-0.8-0.2   c-0.8-0.2-1.6-0.4-2.3-0.6c-0.4-0.1-0.7-0.2-1.1-0.3c-0.7-0.2-1.4-0.4-2.1-0.5c-0.4-0.1-0.7-0.2-1.1-0.3c-0.8-0.2-1.7-0.4-2.5-0.5   c-0.2,0-0.4-0.1-0.7-0.1c-1.1-0.2-2.1-0.4-3.2-0.6c-0.3-0.1-0.6-0.1-0.9-0.2c-0.8-0.1-1.6-0.3-2.4-0.4c-0.4-0.1-0.7-0.1-1.1-0.2   c-0.8-0.1-1.5-0.2-2.3-0.3c-0.4,0-0.7-0.1-1.1-0.1c-1-0.1-1.9-0.2-2.9-0.3c-0.1,0-0.3,0-0.4,0c-1.1-0.1-2.2-0.2-3.3-0.3   c-0.3,0-0.6,0-1-0.1c-0.8-0.1-1.6-0.1-2.4-0.2c-0.4,0-0.8,0-1.2-0.1c-0.8,0-1.6-0.1-2.4-0.1c-0.3,0-0.7,0-1,0c-1.1,0-2.2,0-3.4,0h0   h0h0c-1.7,0-3.4,0-5.1,0.1c-0.1,0-0.3,0-0.4,0c-1.6,0.1-3.2,0.2-4.8,0.3c-0.2,0-0.4,0-0.6,0c-1.6,0.1-3.1,0.3-4.7,0.4   c-0.2,0-0.5,0-0.7,0.1c-1.6,0.2-3.1,0.4-4.7,0.6c-0.2,0-0.4,0.1-0.6,0.1c-1.6,0.2-3.2,0.5-4.7,0.8c-0.1,0-0.3,0.1-0.4,0.1   c-1.6,0.3-3.3,0.6-4.9,1c0,0,0,0,0,0c-5.1,1.1-10,2.6-14.9,4.2c0,0-0.1,0-0.1,0c-1.6,0.5-3.2,1.1-4.7,1.7c0,0-0.1,0-0.1,0   c-1.6,0.6-3.1,1.2-4.7,1.9c0,0,0,0,0,0c-37,15.8-66,46.7-79.2,85l0,0l0,0c0,0,0,0,0,0h0.1l16.2,16.2c-1.3,4.7-3.1,9.4-4.5,14.1   c-0.7,2.3-1.4,4.6-2.1,6.9l-27.1-27.1l0,0c-0.4-0.3-0.7-0.5-1.1-0.6c-3.5-0.6-7.2-0.2-11.2-0.2c11.6,39.3,20.1,67.8,21,71   c0.1,0.4,0.5,1.5,1.6,2.6l0,0l0,0c0,0,0.1,0.1,0.1,0.1l10.6,10.6h-3.5c8,23.3,21.9,43.9,39.9,60l117.4,117.4c25.8,0,51.7,0,77.5,0   c40.4,0,40.4,0,40.4,0c11.6,0,23.2,0,34.8,0c33.3,0,60.5-26.4,61.8-59.4h0.1c0-44.2,0-88.5,0-132.7L423.4,219.2z"/></g><g id="Symbol"><g><path class="st3" d="M202.4,218.7c4,0,7.7-0.4,11.2,0.2c1.4,0.3,3,2.7,3.4,4.4c4.6,17.7,9,35.5,13.5,53.3c0.2,0.8,0.5,1.5,0.9,3    c4.3-13.8,8.3-26.9,12.4-39.9c1.8-5.7,4-11.3,5.3-17.2c0.1-0.5,0.5-2,1.8-3.1c2.6-2.4,7.5-2.4,10.2-0.1c1.3,1.2,1.8,2.7,2,3.2    c5.1,17.8,10.5,35.4,15.8,53.1c0.3,1,0.7,2.1,1.2,3.4c4.7-17,9.3-33.6,13.9-50.1c3.1-11.2,3.1-11.2,16-9.7    c-0.9,2.9-1.8,5.6-2.7,8.4c-6.6,20.4-13.4,40.8-19.6,61.4c-0.2,0.5-0.7,2.1-2.2,3.4c-2.9,2.4-8,2.5-10.8,0.1    c-1.4-1.2-2-2.8-2.1-3.4c-4.9-17.1-10.2-34.1-15.4-51.2c-0.3-1.1-0.7-2.2-1.1-3.2c-4.7,14.5-9.3,28.8-13.9,43.2    c-1.3,4.1-2.8,8.2-4.1,12.3c-0.2,0.7-0.8,1.7-1.8,2.7c-2.8,2.4-7.7,2.3-10.5,0.1c-1.4-1.2-2-2.7-2.1-3.1    C222.5,286.5,214.1,258,202.4,218.7z"/><g><path class="st3" d="M375.7,302.9c-4.7,12-11.2,23.2-19.1,33.1c-14.9-8.4-30.6-14.9-46.7-19.3c1.4-4.6,2.7-9.2,3.8-13.9h-9.9     c-1,3.9-2,7.7-3.2,11.5c-13-2.9-26.2-4.5-39.5-4.8v-6.7h-9.7v6.8c-13.3,0.3-26.6,1.9-39.6,4.8c-1.2-3.8-2.3-7.7-3.2-11.6h-9.9     c1.1,4.7,2.4,9.3,3.8,13.9c-16.1,4.4-31.8,10.8-46.6,19.2c-7.9-9.9-14.4-21.1-19.1-33.1h-16c19.4,56.2,72.7,96.6,135.6,96.6     s116.2-40.4,135.6-96.6H375.7z M162.1,343.5c13.8-7.6,28.3-13.5,43.3-17.5c7.5,20.6,18.4,39.9,32.2,57.2     C208,378.8,181.6,364.5,162.1,343.5z M251.3,384.3c-15.9-18.1-28.2-38.6-36.5-60.7c12-2.6,24.2-4.1,36.5-4.4V384.3z M261,319.3     c12.2,0.3,24.4,1.7,36.4,4.4c-8.1,21.8-20.2,42.4-36.4,60.7V319.3z M274.6,383.1c14-17.5,24.8-36.9,32.2-57.2     c15,4,29.5,9.9,43.4,17.5C330.7,364.5,304.3,378.9,274.6,383.1z"/><path class="st3" d="M136.6,209.4c4.7-12,11.2-23.2,19.1-33.1c14.9,8.4,30.5,14.9,46.6,19.2c-1.4,4.6-2.7,9.2-3.8,13.9h10     c1-3.9,2-7.8,3.2-11.6c13,2.9,26.3,4.5,39.6,4.8v6.8h9.7v-6.8c13.2-0.3,26.5-1.9,39.5-4.8c1.2,3.8,2.3,7.7,3.2,11.6h9.9     c-1.1-4.7-2.3-9.3-3.8-13.9c16.2-4.4,31.9-10.8,46.7-19.3c7.9,9.9,14.3,21.1,19,33.1h16c-19.4-56.2-72.7-96.6-135.6-96.6     s-116.2,40.4-135.6,96.6H136.6z M350.2,168.8c-13.8,7.7-28.4,13.5-43.4,17.5c-7.4-20.3-18.1-39.7-32.2-57.2     C304.3,133.4,330.7,147.8,350.2,168.8z M261,127.9c16.2,18.3,28.3,38.9,36.4,60.7c-12,2.6-24.1,4-36.4,4.4V127.9z M251.3,192.9     c-12.2-0.3-24.4-1.8-36.5-4.4c8.2-22.1,20.5-42.7,36.5-60.7V192.9z M237.6,129.1c-13.9,17.3-24.8,36.6-32.2,57.2     c-14.9-4-29.5-9.9-43.3-17.5C181.6,147.8,208,133.4,237.6,129.1z"/></g><path class="st3" d="M316,218.8c4,0,7.7-0.4,11.2,0.2c1.4,0.3,3,2.7,3.4,4.4c4.6,17.7,9,35.5,13.5,53.3c0.2,0.8,0.5,1.5,0.9,3    c4.3-13.8,8.3-26.9,12.4-39.9c1.8-5.7,4-11.3,5.3-17.2c0.1-0.5,0.5-2,1.8-3.1c2.6-2.4,7.5-2.4,10.2-0.1c1.3,1.2,1.8,2.7,2,3.2    c5.1,17.8,10.5,35.4,15.8,53.1c0.3,1,0.7,2.1,1.2,3.4c4.7-17,9.3-33.6,13.9-50.1c3.1-11.2,3.1-11.2,16-9.7    c-0.9,2.9-1.8,5.6-2.7,8.4c-6.6,20.4-13.4,40.8-19.6,61.4c-0.2,0.5-0.7,2.1-2.2,3.4c-2.9,2.4-8,2.5-10.8,0.1    c-1.4-1.2-2-2.8-2.1-3.4c-4.9-17.1-10.2-34.1-15.4-51.2c-0.3-1.1-0.7-2.2-1.1-3.2c-4.7,14.5-9.3,28.8-13.9,43.2    c-1.3,4.1-2.8,8.2-4.1,12.3c-0.2,0.7-0.8,1.7-1.8,2.7c-2.8,2.4-7.7,2.3-10.5,0.1c-1.4-1.2-2-2.7-2.1-3.1    C336.1,286.6,327.6,258.1,316,218.8z"/><path class="st3" d="M90.8,218.7c4,0,7.7-0.4,11.2,0.2c1.4,0.3,3,2.7,3.4,4.4c4.6,17.7,9,35.5,13.5,53.3c0.2,0.8,0.5,1.5,0.9,3    c4.3-13.8,8.3-26.9,12.4-39.9c1.8-5.7,4-11.3,5.3-17.2c0.1-0.5,0.5-2,1.8-3.1c2.6-2.4,7.5-2.4,10.2-0.1c1.3,1.2,1.8,2.7,2,3.2    c5.1,17.8,10.5,35.4,15.8,53.1c0.3,1,0.7,2.1,1.2,3.4c4.7-17,9.3-33.6,13.9-50.1c3.1-11.2,3.1-11.2,16-9.7    c-0.9,2.9-1.8,5.6-2.7,8.4c-6.6,20.4-13.4,40.8-19.6,61.4c-0.2,0.5-0.7,2.1-2.2,3.4c-2.9,2.4-8,2.5-10.8,0.1    c-1.4-1.2-2-2.8-2.1-3.4c-4.9-17.1-10.2-34.1-15.4-51.2c-0.3-1.1-0.7-2.2-1.1-3.2c-4.7,14.5-9.3,28.8-13.9,43.2    c-1.3,4.1-2.8,8.2-4.1,12.3c-0.2,0.7-0.8,1.7-1.8,2.7c-2.8,2.4-7.7,2.3-10.5,0.1c-1.4-1.2-2-2.7-2.1-3.1    C110.9,286.4,102.5,257.9,90.8,218.7z"/></g></g></svg>